<svg xmlns="http://www.w3.org/2000/svg" viewBox="0 0 149.77 48.83"><title>logo</title><path d="M135.35,25.37l.14-.06c.35-1,1.1-1.13,2-1.06s2.17,0,3.25,0c.06.31-.13.48-.23.67-2.16,3.83-4.31,7.66-6.48,11.48-.8,1.41-1.7,2.77-2.45,4.22a12.68,12.68,0,0,0-.81,1.8c-.1.28-.18.56.07.77a.68.68,0,0,0,.85,0,10.76,10.76,0,0,0,1.75-1.33,25.26,25.26,0,0,0,3.59-4.34c.34-.5.7-1,1-1.53a.79.79,0,0,1,.86-.46,8.12,8.12,0,0,0,.85,0,.41.41,0,0,1-.09.48,49.08,49.08,0,0,1-6.66,8.6,15,15,0,0,1-4.08,2.9,3.64,3.64,0,0,1-1.91.42,1.93,1.93,0,0,1-1.84-1.55,5.72,5.72,0,0,1-.1-2c-.34,0-.45.23-.61.39a16.66,16.66,0,0,1-3.12,2.43,4.43,4.43,0,0,1-2.15.71,2.55,2.55,0,0,1-2.73-2,4.51,4.51,0,0,1-.15-1.21c0-.43,0-.85,0-1.3-.26,0-.33.2-.45.33A19.69,19.69,0,0,1,113,46.52a7.13,7.13,0,0,1-2.18,1.23,2.82,2.82,0,0,1-3.7-1.64,5.8,5.8,0,0,1-.31-3.22A26.23,26.23,0,0,1,108.06,38c.31-1,.62-1.93,1-3l-2.41.27c-.3,0-.36.33-.49.54-.86,1.47-1.75,2.92-2.74,4.31a28.67,28.67,0,0,1-3.65,4.28,17.08,17.08,0,0,1-3.67,2.71,6.18,6.18,0,0,1-2,.72,3,3,0,0,1-3.64-2.68,10.38,10.38,0,0,1,.4-4.36A22.6,22.6,0,0,1,93.36,35a33.52,33.52,0,0,1,6.5-8.12,15.3,15.3,0,0,1,4.29-2.72,5.46,5.46,0,0,1,2.53-.43,2.59,2.59,0,0,1,2.37,2.13,7.16,7.16,0,0,1-.08,3.32,19.79,19.79,0,0,1-1.36,3.8,1.62,1.62,0,0,0-.28.86,5,5,0,0,0,2.38-.58c.23-.13.28-.42.39-.65A114.49,114.49,0,0,1,116,21.79a75,75,0,0,1,13.05-16,30.2,30.2,0,0,1,5.36-4.14,10,10,0,0,1,2.09-.91,4.47,4.47,0,0,1,1.36-.14,1.54,1.54,0,0,1,1.63,1.56,5.4,5.4,0,0,1-.16,2,12.4,12.4,0,0,1-1.05,2.53.69.69,0,0,1-.52.4c-.39.08-.78.18-1.23.29a1.25,1.25,0,0,1,.19-.6c.34-.71.68-1.42,1-2.14A3.62,3.62,0,0,0,138.07,3c0-.54-.22-.69-.73-.53a4.27,4.27,0,0,0-1,.52,17.26,17.26,0,0,0-1.83,1.49,54.78,54.78,0,0,0-8.35,9.57,122.26,122.26,0,0,0-9,14.69,2,2,0,0,0-.33.91,5.5,5.5,0,0,0,1.25-.81,59.07,59.07,0,0,0,6-5.43,87.54,87.54,0,0,0,8.12-9.29.88.88,0,0,1,.81-.45c.32,0,.64-.15,1-.08a1.36,1.36,0,0,1-.4.79A65.3,65.3,0,0,1,129.21,20a74.54,74.54,0,0,1-13,12.15,4.3,4.3,0,0,0-1.56,2,35.2,35.2,0,0,0-2.33,7,4.71,4.71,0,0,0-.06,1.45,1,1,0,0,0,1.74.82A6.81,6.81,0,0,0,115.38,42a31.46,31.46,0,0,0,2.82-3.88A76,76,0,0,1,124,29.92a25.1,25.1,0,0,1,5.92-5.34,5.6,5.6,0,0,1,2.27-.82A2.72,2.72,0,0,1,135,25,4.32,4.32,0,0,0,135.35,25.37Zm-13,16.8c-.13,1,.7,1.36,1.52.92a2.23,2.23,0,0,0,.44-.29,8.48,8.48,0,0,0,1.57-1.54c.79-1.06,1.54-2.14,2.25-3.26,1.86-2.91,3.47-6,5.22-8.94.33-.56.7-1.12,1-1.7s0-1.17-.75-1.16a2.49,2.49,0,0,0-1.5.67A22.92,22.92,0,0,0,128.94,30a52.32,52.32,0,0,0-4.7,6.92,19.1,19.1,0,0,0-1.53,3.31A6.34,6.34,0,0,0,122.3,42.17ZM100.92,31.43l-.57.75a35.66,35.66,0,0,0-2.18,3.4,21,21,0,0,0-1.85,4.17,5.37,5.37,0,0,0-.24,2.18,1.36,1.36,0,0,0,1.79,1.25,3.93,3.93,0,0,0,1.41-.72,12.37,12.37,0,0,0,2.07-2,26.36,26.36,0,0,0,3.3-4.93c.14-.28.29-.51-.15-.72A7.84,7.84,0,0,1,100.92,31.43Zm1.69-1.68a3.91,3.91,0,0,0,2.58,3.65c.49.19.51.2.77-.29a15.56,15.56,0,0,0,1.49-3.72,4.85,4.85,0,0,0,.09-2.48,1.22,1.22,0,0,0-1.64-1,2.23,2.23,0,0,0-.57.18A5.33,5.33,0,0,0,103.14,28,3.14,3.14,0,0,0,102.61,29.75Z" fill="#e6202e"/><path d="M34.75,22.38,33,22.76c-.32.06-.43.32-.58.55-.69,1.13-1.36,2.26-2.06,3.38A29.12,29.12,0,0,1,23.81,34a9.25,9.25,0,0,1-3.95,2,3.09,3.09,0,0,1-3.8-2.31,9,9,0,0,1,.05-4.38,18.5,18.5,0,0,1,1.41-4.09A30.94,30.94,0,0,1,26,14.53a13.67,13.67,0,0,1,3.78-2.25,5.58,5.58,0,0,1,2.68-.43A2.74,2.74,0,0,1,34.92,14a6.36,6.36,0,0,1-.06,3.24A17.49,17.49,0,0,1,34,20.08a1.56,1.56,0,0,0-.23.8,1.25,1.25,0,0,0,1-.18,12.19,12.19,0,0,0,2.2-1.36,23.38,23.38,0,0,0,3-2.76,22.1,22.1,0,0,1,4.19-3.53,7.19,7.19,0,0,1,3.32-1.22A4.75,4.75,0,0,1,49,12a3,3,0,0,1,2.28,2.57,4.13,4.13,0,0,1,0,1.36,7.87,7.87,0,0,1-2.09,4,2.93,2.93,0,0,1-1.2.79,1.25,1.25,0,0,1-1.65-1,2.36,2.36,0,0,1,0-.53c.1-1.24,1.47-3.14,2.88-3.14.4,0,.61-.16.65-.57a1,1,0,0,0-.57-1.14,1.49,1.49,0,0,0-1,0,4.29,4.29,0,0,0-1.68.87,23.9,23.9,0,0,0-3.84,4,32.53,32.53,0,0,0-4.76,8.81,5.12,5.12,0,0,0-.23,3.14A1.9,1.9,0,0,0,40,32.54a6.14,6.14,0,0,0,2.27-1.06,18.72,18.72,0,0,0,3.07-2.83,58.78,58.78,0,0,0,5-6.34A44.75,44.75,0,0,1,56,15.52a18.67,18.67,0,0,1,3.26-2.61,6.77,6.77,0,0,1,2.52-1,2.88,2.88,0,0,1,2.86,1c.06.08.13.15.2.23l.06,0s.12,0,.13-.06a1.23,1.23,0,0,1,1.36-.69c1,.06,2,0,3,0a1.11,1.11,0,0,1,.67.08c0,.27-.18.46-.3.67L60.51,29.39A2.72,2.72,0,0,0,60,30.58c-.05.56.27.82.8.62a4.32,4.32,0,0,0,1.34-.86A23.2,23.2,0,0,0,65.37,27c.62-.76,1.23-1.55,1.8-2.35a1,1,0,0,1,1.07-.55,5,5,0,0,0,.77,0,.27.27,0,0,1,0,.34,49,49,0,0,1-7.1,8.64,17.38,17.38,0,0,1-3,2.31,5.5,5.5,0,0,1-1.92.71,2.11,2.11,0,0,1-2.51-2c0-.45,0-.91,0-1.38-.26-.08-.34.15-.47.28a14.24,14.24,0,0,1-2.82,2.31,6.08,6.08,0,0,1-2,.8,2.69,2.69,0,0,1-3.35-2.69,9.63,9.63,0,0,1,.34-2.56c0-.23.21-.46.06-.78l-1.21,1.18a31.72,31.72,0,0,1-3.4,2.94,10,10,0,0,1-4.43,1.92,4.09,4.09,0,0,1-4.57-2.24A7.47,7.47,0,0,1,32,32.1a8.62,8.62,0,0,1,.53-4.63,34.36,34.36,0,0,1,2-4.36c.11-.2.2-.41.3-.61s.09-.13,0-.18S34.79,22.36,34.75,22.38Zm17.86,9.09a1.21,1.21,0,0,0,.66-.25,8.41,8.41,0,0,0,1.84-1.58,16.5,16.5,0,0,0,1.58-2.15c2.53-4,4.82-8.12,7.15-12.23a.65.65,0,0,0-.5-1,1.78,1.78,0,0,0-1.1.23A6.07,6.07,0,0,0,60.4,15.9a70.86,70.86,0,0,0-5.56,7.35A25.79,25.79,0,0,0,52,29a6.2,6.2,0,0,0-.33,1.4A.9.9,0,0,0,52.61,31.47Zm-26-12.08a2.64,2.64,0,0,0-.24.2,33.84,33.84,0,0,0-3.95,6.92,10.07,10.07,0,0,0-.72,2.63,1.92,1.92,0,0,0,.72,2,1.82,1.82,0,0,0,2-.23,11.74,11.74,0,0,0,2.29-2,34.79,34.79,0,0,0,4-5.74.72.72,0,0,0,.12-.56A6.94,6.94,0,0,1,26.63,19.39Zm6.77-3.3a5.26,5.26,0,0,0-.07-.63c-.25-1.26-.93-1.71-2.14-1.24a4.46,4.46,0,0,0-2.85,3.4,2.25,2.25,0,0,0,.46,1.93A4.09,4.09,0,0,0,31.37,21a.55.55,0,0,0,.69-.41c.21-.55.48-1.07.68-1.61A9.48,9.48,0,0,0,33.4,16.09Z" fill="#e6202e"/><path d="M78.9,38.53a19.29,19.29,0,0,1,4.2-10.86A10.86,10.86,0,0,1,89,23.87a4.28,4.28,0,0,1,1.28-.16,2.74,2.74,0,0,1,2.52,1.8,7.48,7.48,0,0,1,.28,4,19.9,19.9,0,0,1-2.65,7,26.86,26.86,0,0,1-9.17,9.8,10.29,10.29,0,0,1-5,1.63,6.42,6.42,0,0,1-5.83-2.82,9.36,9.36,0,0,1-1.65-4.53,17.07,17.07,0,0,1,.72-6.77,48.61,48.61,0,0,1,6.18-12.94A63.06,63.06,0,0,1,88.06,6.77,32.51,32.51,0,0,1,98.79.67a10.15,10.15,0,0,1,3.75-.53,4.47,4.47,0,0,1,2.8,1,.81.81,0,0,0,1,.14,17.66,17.66,0,0,1,3.51-1,13.6,13.6,0,0,1,8.75,1.59c2,1.05,3.86,2.15,5.78,3.25.84.47,1.65,1,2.44,1.46a.28.28,0,0,1-.09.32q-1.61,1.58-3.08,3.28a.5.5,0,0,1-.77.13c-.71-.44-1.44-.86-2.14-1.31-2.13-1.35-4.18-2.8-6.38-4a16.91,16.91,0,0,0-5.55-2,4.22,4.22,0,0,0-1.66,0,.53.53,0,0,0-.5.62A16.42,16.42,0,0,1,103.77,13a20.25,20.25,0,0,1-3.19,4.07,9.62,9.62,0,0,1-3.84,2.39,3.29,3.29,0,0,1-1.36.12,2,2,0,0,1-1.7-1.23,4.16,4.16,0,0,1-.25-2.76A15.67,15.67,0,0,1,95.37,11a25,25,0,0,1,7.91-8.12,1.73,1.73,0,0,0,.67-.53,3.53,3.53,0,0,0-2.48,0,9.15,9.15,0,0,0-1.81.8,32.51,32.51,0,0,0-8.14,6.23A72.42,72.42,0,0,0,78.67,27.18a33.41,33.41,0,0,0-3.26,9.71,9.65,9.65,0,0,0-.06,3.86,4.18,4.18,0,0,0,3,3.38,4.14,4.14,0,0,0,2.68-.29A10.41,10.41,0,0,0,84,42a23.2,23.2,0,0,0,7.41-11.57,7.88,7.88,0,0,0,.28-2.86c-.12-1.18-.73-1.65-2-1.24a3.9,3.9,0,0,0-1.74,1.32,12.77,12.77,0,0,0-2.54,4.64,5,5,0,0,1-.51,1.65c-.31.41-.94.56-1.42.85a20.21,20.21,0,0,0-4,3.22ZM105.07,3.81a2.79,2.79,0,0,0-.9.42,23,23,0,0,0-8.86,10.19,6,6,0,0,0-.54,1.9,1.39,1.39,0,0,0,2.08,1.53,5.94,5.94,0,0,0,1.3-.79A17.62,17.62,0,0,0,104.9,6.27,6.29,6.29,0,0,0,105.07,3.81Z" fill="#e6202e"/><path d="M64.72,48.83A21.63,21.63,0,0,0,58.24,46a16.22,16.22,0,0,0-5.89-.45,6.75,6.75,0,0,0-4.79,2.79c-.07.1-.14.2-.2.27s-.22-.06-.27-.14a9.91,9.91,0,0,0-6.66-4.55,21.85,21.85,0,0,0-7.35-.23,65,65,0,0,0-9.14,2c-3,.77-6,1.5-9.07,2a14.94,14.94,0,0,1-7.45-.38A10.15,10.15,0,0,1,.34,39.16a20.78,20.78,0,0,1,.36-9A39.54,39.54,0,0,1,6.94,16.71,49.22,49.22,0,0,1,19.39,4.19,23.19,23.19,0,0,1,28.07.25,11.65,11.65,0,0,1,30.5,0a3.69,3.69,0,0,1,3.88,4.08,6.91,6.91,0,0,1-.92,3A8.85,8.85,0,0,1,32.41,8.7a2.73,2.73,0,0,1-2.1,1.09,1.16,1.16,0,0,1-1.28-1,3.08,3.08,0,0,1,0-.91,3.85,3.85,0,0,1,3.06-3.17c.52-.09.63-.21.68-.73A1.45,1.45,0,0,0,31.42,2.3a4.27,4.27,0,0,0-1.87.25,17.74,17.74,0,0,0-6,3.56,52.78,52.78,0,0,0-7.39,8A53.6,53.6,0,0,0,8.92,26.31a34.12,34.12,0,0,0-2.1,7.06A13.84,13.84,0,0,0,7,39.64a6.66,6.66,0,0,0,3.28,4.19,12,12,0,0,0,7.06,1.39,60.12,60.12,0,0,0,8.51-1.68c3.77-.92,7.53-1.88,11.32-2.74a39.78,39.78,0,0,1,9.67-1,20.26,20.26,0,0,1,11.66,3.67,40.69,40.69,0,0,1,5.33,4.29A4.23,4.23,0,0,1,64.72,48.83Z" fill="#e6202e"/><path d="M149.74.3a.9.9,0,0,1-.18.57,24.34,24.34,0,0,1-12.08,10.81,16.21,16.21,0,0,1-6.38,1.26,12.61,12.61,0,0,1-2.68-.34c-.09-.25.09-.36.19-.5.88-1.15,1.81-2.25,2.76-3.35a.76.76,0,0,1,.7-.34c4.38.4,8.23-1.11,11.86-3.36A29.91,29.91,0,0,0,149.75.29Z" fill="#e6202e"/><path d="M78.08,12.56c-.79,1.29-1.57,2.56-2.36,3.83a.4.4,0,0,1-.37.21h-4c-.12-.23,0-.35.08-.47l2-3.24a.68.68,0,0,1,.64-.43c1.27,0,2.54,0,3.81,0A1.15,1.15,0,0,1,78.08,12.56Z" fill="#e6202e"/><polygon points="149.75 0.29 149.77 0.29 149.74 0.3 149.75 0.29" fill="#e6202e"/><path d="M122.3,42.17a6.34,6.34,0,0,1,.41-2,19.1,19.1,0,0,1,1.53-3.31,52.32,52.32,0,0,1,4.7-6.92,22.92,22.92,0,0,1,3.12-3.11,2.49,2.49,0,0,1,1.5-.67c.72,0,1.08.53.75,1.16s-.68,1.14-1,1.7c-1.75,3-3.36,6-5.22,8.94-.71,1.12-1.46,2.2-2.25,3.26a8.48,8.48,0,0,1-1.57,1.54,2.23,2.23,0,0,1-.44.29C123,43.53,122.17,43.21,122.3,42.17Z" fill="#f9f6f6"/><path d="M100.92,31.43a7.84,7.84,0,0,0,3.58,3.36c.44.21.29.44.15.72a26.36,26.36,0,0,1-3.3,4.93,12.37,12.37,0,0,1-2.07,2,3.93,3.93,0,0,1-1.41.72,1.36,1.36,0,0,1-1.79-1.25,5.37,5.37,0,0,1,.24-2.18,21,21,0,0,1,1.85-4.17,35.66,35.66,0,0,1,2.18-3.4Z" fill="#f9f6f6"/><path d="M102.61,29.75a3.14,3.14,0,0,1,.53-1.74,5.33,5.33,0,0,1,2.19-1.94,2.23,2.23,0,0,1,.57-.18,1.22,1.22,0,0,1,1.64,1,4.85,4.85,0,0,1-.09,2.48A15.56,15.56,0,0,1,106,33.11c-.26.49-.28.48-.77.29A3.91,3.91,0,0,1,102.61,29.75Z" fill="#f9f6f6"/><path d="M52.61,31.47a.9.9,0,0,1-1-1A6.2,6.2,0,0,1,52,29a25.79,25.79,0,0,1,2.88-5.78A70.86,70.86,0,0,1,60.4,15.9a6.07,6.07,0,0,1,1.84-1.46,1.78,1.78,0,0,1,1.1-.23.65.65,0,0,1,.5,1c-2.33,4.11-4.62,8.24-7.15,12.23a16.5,16.5,0,0,1-1.58,2.15,8.41,8.41,0,0,1-1.84,1.58A1.21,1.21,0,0,1,52.61,31.47Z" fill="#f9f6f6"/><path d="M26.63,19.39a6.94,6.94,0,0,0,4.2,3.2.72.72,0,0,1-.12.56,34.79,34.79,0,0,1-4,5.74,11.74,11.74,0,0,1-2.29,2,1.82,1.82,0,0,1-2,.23,1.92,1.92,0,0,1-.72-2,10.07,10.07,0,0,1,.72-2.63,33.84,33.84,0,0,1,3.95-6.92A2.64,2.64,0,0,1,26.63,19.39Z" fill="#f9f6f6"/><path d="M33.4,16.09A9.48,9.48,0,0,1,32.74,19c-.2.54-.47,1.06-.68,1.61a.55.55,0,0,1-.69.41,4.09,4.09,0,0,1-2.57-1.49,2.25,2.25,0,0,1-.46-1.93,4.46,4.46,0,0,1,2.85-3.4c1.21-.47,1.89,0,2.14,1.24A5.26,5.26,0,0,1,33.4,16.09Z" fill="#f9f6f6"/><path d="M34.75,22.38s.09-.07.11-.06.06.11,0,.18Z" fill="#f9f9f9"/><path d="M105.07,3.81a6.29,6.29,0,0,1-.17,2.46,17.62,17.62,0,0,1-6.75,10.79,5.94,5.94,0,0,1-1.3.79,1.39,1.39,0,0,1-2.08-1.53,6,6,0,0,1,.54-1.9,23,23,0,0,1,8.86-10.19A2.79,2.79,0,0,1,105.07,3.81Z" fill="#f9f6f6"/></svg>